<svg xmlns="http://www.w3.org/2000/svg" xmlns:xlink="http://www.w3.org/1999/xlink" width="500" zoomAndPan="magnify" viewBox="0 0 375 374.999991" height="500" preserveAspectRatio="xMidYMid meet" version="1.0"><defs><g/></defs><g fill="#efebec" fill-opacity="1"><g transform="translate(60.849747, 193.548649)"><g><path d="M 14.558594 -31.425781 L 37.972656 -59.691406 L 65.160156 -10.707031 C 70.933594 -1.539062 68.703125 0 68.703125 0 L 84.492188 0 C 84.492188 0 80.332031 -1.539062 74.554688 -10.707031 L 43.363281 -66.160156 L 71.550781 -100.203125 C 77.558594 -107.441406 85.644531 -110.371094 85.644531 -110.371094 L 72.859375 -110.371094 C 72.859375 -110.371094 74.402344 -105.824219 69.703125 -100.125 L 14.558594 -33.503906 L 14.558594 -100.203125 C 14.558594 -109.367188 17.714844 -110.371094 17.714844 -110.371094 L 1.925781 -110.371094 C 1.925781 -110.371094 5.160156 -109.292969 5.160156 -100.125 L 5.160156 -10.707031 C 5.160156 -1.539062 1.925781 0 1.925781 0 L 17.714844 0 C 17.714844 0 14.558594 -1.539062 14.558594 -10.707031 Z M 14.558594 -31.425781 "/></g></g></g><g fill="#efebec" fill-opacity="1"><g transform="translate(141.166049, 239.23275)"><g><path d="M 48.367188 -0.078125 L 87.339844 -99.664062 C 90.960938 -108.828125 94.734375 -110.445312 94.734375 -110.445312 L 86.570312 -110.445312 C 86.570312 -110.445312 89.1875 -108.828125 85.570312 -99.664062 L 52.144531 -14.25 L 18.714844 -99.664062 C 15.171875 -108.828125 17.714844 -110.445312 17.714844 -110.445312 L 1.925781 -110.445312 C 1.925781 -110.445312 5.777344 -108.828125 9.320312 -99.664062 Z M 48.367188 -0.078125 "/></g></g></g><g fill="#efebec" fill-opacity="1"><g transform="translate(224.981693, 284.91685)"><g><path d="M 41.359375 -50.910156 L 16.945312 -10.78125 C 11.398438 -1.617188 7.238281 -0.078125 7.238281 -0.078125 L 15.402344 -0.078125 C 15.402344 -0.078125 13.171875 -1.617188 18.714844 -10.78125 L 42.207031 -49.445312 L 66.160156 -10.242188 C 71.707031 -1 69.085938 -0.078125 69.085938 -0.078125 L 84.875 -0.078125 C 84.875 -0.078125 81.023438 -1.078125 75.480469 -10.242188 L 46.90625 -57.148438 L 73.167969 -100.28125 C 78.714844 -109.445312 82.488281 -110.445312 82.488281 -110.445312 L 74.402344 -110.445312 C 74.402344 -110.445312 76.941406 -109.367188 71.320312 -100.203125 L 46.058594 -58.613281 L 21.101562 -99.664062 C 15.480469 -108.828125 17.714844 -110.445312 17.714844 -110.445312 L 1.925781 -110.445312 C 1.925781 -110.445312 6.085938 -108.828125 11.707031 -99.664062 Z M 41.359375 -50.910156 "/></g></g></g></svg>