<svg xmlns="http://www.w3.org/2000/svg" xmlns:xlink="http://www.w3.org/1999/xlink" width="500" zoomAndPan="magnify" viewBox="0 0 375 374.999991" height="500" preserveAspectRatio="xMidYMid meet" version="1.0"><defs><g/></defs><g fill="#efebec" fill-opacity="1"><g transform="translate(77.148601, 225.237387)"><g><path d="M 22.199219 -47.925781 L 57.910156 -91.035156 L 99.375 -16.328125 C 108.183594 -2.347656 104.777344 0 104.777344 0 L 128.859375 0 C 128.859375 0 122.515625 -2.347656 113.703125 -16.328125 L 66.132812 -100.902344 L 109.125 -152.820312 C 118.285156 -163.863281 130.621094 -168.324219 130.621094 -168.324219 L 111.121094 -168.324219 C 111.121094 -168.324219 113.46875 -161.394531 106.304688 -152.703125 L 22.199219 -51.097656 L 22.199219 -152.820312 C 22.199219 -166.796875 27.015625 -168.324219 27.015625 -168.324219 L 2.9375 -168.324219 C 2.9375 -168.324219 7.871094 -166.679688 7.871094 -152.703125 L 7.871094 -16.328125 C 7.871094 -2.347656 2.9375 0 2.9375 0 L 27.015625 0 C 27.015625 0 22.199219 -2.347656 22.199219 -16.328125 Z M 22.199219 -47.925781 "/></g></g></g><g fill="#efebec" fill-opacity="1"><g transform="translate(162.501816, 285.9275)"><g><path d="M 63.078125 -77.644531 L 25.84375 -16.445312 C 17.382812 -2.464844 11.042969 -0.117188 11.042969 -0.117188 L 23.492188 -0.117188 C 23.492188 -0.117188 20.085938 -2.464844 28.542969 -16.445312 L 64.371094 -75.410156 L 100.902344 -15.621094 C 109.359375 -1.527344 105.363281 -0.117188 105.363281 -0.117188 L 129.445312 -0.117188 C 129.445312 -0.117188 123.570312 -1.644531 115.113281 -15.621094 L 71.535156 -87.15625 L 111.589844 -152.9375 C 120.046875 -166.917969 125.804688 -168.441406 125.804688 -168.441406 L 113.46875 -168.441406 C 113.46875 -168.441406 117.347656 -166.796875 108.769531 -152.820312 L 70.242188 -89.390625 L 32.183594 -152 C 23.609375 -165.976562 27.015625 -168.441406 27.015625 -168.441406 L 2.9375 -168.441406 C 2.9375 -168.441406 9.28125 -165.976562 17.855469 -152 Z M 63.078125 -77.644531 "/></g></g></g></svg>