<svg xmlns="http://www.w3.org/2000/svg" width="48" height="41.17935999145508" style="">
  <rect id="backgroundrect" width="100%" height="100%" x="0" y="0" fill="none" stroke="none"/>
  <g class="currentLayer" style="">
    <g stroke="#61dafb" strokeWidth="1" fill="none" id="svg_2" class="">
      <ellipse rx="22" ry="8.399999618530273" id="svg_3" cy="20.463479042053223" cx="24" class=""/>
      <ellipse rx="22" ry="8.399999618530273" transform="rotate(60 24,20.46347999572754) " id="svg_4" cy="20.463479042053223" cx="24" class=""/>
      <ellipse rx="22" ry="8.399999618530273" transform="rotate(120 24,20.46347999572754) " id="svg_5" cy="20.463479042053223" cx="24" class=""/>
    </g>
    <image xmlns:xlink="http://www.w3.org/1999/xlink" id="svg_7" x="-790" y="-35" width="1" height="0" style="color: rgb(0, 0, 0);" xlink:href="logo/vector_paint_icon256.png"/>
    <g class="" id="svg_6" stroke="none" fill-opacity="1" fill="#61dafb">
      <path d="M20.006773069134853,20.582229530812022 C17.891209771408143,20.649469075129246 17.26243554050485,22.160714839642163 17.11834144592285,23.21428616376043 C17.306099981002148,22.674595646849506 18.107759502980066,21.010084112951405 19.576873802044,21.010084112951405 C21.160496391689935,21.010084112951405 22.27547061188305,22.715169510153724 22.54306112896414,23.497852049147094 C22.913467312151903,24.650234045824065 24.137801829731533,26.490957495711375 26.264098590875905,26.025951168671377 C27.402510993280275,25.71854800515188 28.09146801301098,24.195654488574154 28.18931647713705,23.21428616376043 C27.86712757623938,24.284158249637166 27.31279366430207,25.091767973293353 26.181786829202412,24.42016850471213 C25.350063558699674,23.92820695155182 24.521281827291342,20.510195582565955 20.006773069134853,20.582229530812022 z" fill="#61dafb" class="" id="svg_14" stroke="none" stroke-opacity="1"/>
      <path d="M24.738011134621033,16.72443763495745 C21.62244783689432,16.776108326454055 20.650717081677725,18.30292317645891 20.53957854278791,19.352293294393697 C20.64835117664939,18.807042904285916 21.4237471278703,17.24621932431664 22.900111867530166,17.24621932431664 C24.514490761176114,17.24621932431664 25.666885319349553,18.801104739371165 25.759769259773244,19.682689029619046 C25.93163485048888,21.039005269666615 27.282019465186618,23.23039454113699 29.9947906922243,22.504563497843946 C31.360042289760085,22.139598988767233 32.06276494122857,20.484165269217007 32.13676931438196,19.352293294393697 C31.973269191912016,21.13361544560063 31.38697741576113,22.152259031204596 30.21168145696433,21.442196672706063 C28.99124279343864,20.682585146058634 27.561574432817743,16.672766943560844 24.738011134621033,16.72443763495745 z" fill="#61dafb" class="" id="svg_13" stroke="none" stroke-opacity="1"/>
    </g>
  </g>
</svg>
